<mxfile host="app.diagrams.net" modified="2023-12-20T16:55:27.436Z" agent="Mozilla/5.0 (Windows NT 10.0; Win64; x64) AppleWebKit/537.36 (KHTML, like Gecko) Chrome/120.0.0.0 Safari/537.36 Edg/120.0.0.0" etag="gxR5ISGLiRQ2zeexeuit" version="22.1.11" type="github">
  <diagram name="Page-1" id="ME7RNCLGPrH8AeEWXXae">
    <mxGraphModel dx="1353" dy="2135" grid="1" gridSize="10" guides="1" tooltips="1" connect="1" arrows="1" fold="1" page="1" pageScale="1" pageWidth="850" pageHeight="1100" math="0" shadow="0">
      <root>
        <mxCell id="0" />
        <mxCell id="1" parent="0" />
        <mxCell id="eA9EFltyGCuq8FdXo3xL-1" value="IETM" style="shape=document;whiteSpace=wrap;html=1;boundedLbl=1;" vertex="1" parent="1">
          <mxGeometry x="120" y="-940" width="120" height="80" as="geometry" />
        </mxCell>
        <mxCell id="eA9EFltyGCuq8FdXo3xL-2" style="edgeStyle=orthogonalEdgeStyle;rounded=0;orthogonalLoop=1;jettySize=auto;html=1;exitX=0.5;exitY=0;exitDx=0;exitDy=0;endArrow=none;endFill=0;startArrow=classic;startFill=1;" edge="1" parent="1" source="eA9EFltyGCuq8FdXo3xL-6" target="eA9EFltyGCuq8FdXo3xL-1">
          <mxGeometry relative="1" as="geometry">
            <mxPoint x="180" y="-775" as="sourcePoint" />
          </mxGeometry>
        </mxCell>
        <mxCell id="eA9EFltyGCuq8FdXo3xL-3" style="edgeStyle=orthogonalEdgeStyle;rounded=0;orthogonalLoop=1;jettySize=auto;html=1;exitX=1;exitY=0.5;exitDx=0;exitDy=0;entryX=0;entryY=0.5;entryDx=0;entryDy=0;entryPerimeter=0;" edge="1" parent="1" source="eA9EFltyGCuq8FdXo3xL-6" target="eA9EFltyGCuq8FdXo3xL-5">
          <mxGeometry relative="1" as="geometry">
            <mxPoint x="180" y="-715" as="sourcePoint" />
            <mxPoint x="250" y="-685" as="targetPoint" />
          </mxGeometry>
        </mxCell>
        <mxCell id="eA9EFltyGCuq8FdXo3xL-4" style="edgeStyle=orthogonalEdgeStyle;rounded=0;orthogonalLoop=1;jettySize=auto;html=1;exitX=1;exitY=0.5;exitDx=0;exitDy=0;exitPerimeter=0;entryX=0;entryY=0.75;entryDx=0;entryDy=0;" edge="1" parent="1" source="eA9EFltyGCuq8FdXo3xL-5" target="eA9EFltyGCuq8FdXo3xL-16">
          <mxGeometry relative="1" as="geometry">
            <mxPoint x="570" y="-665" as="targetPoint" />
          </mxGeometry>
        </mxCell>
        <mxCell id="eA9EFltyGCuq8FdXo3xL-5" value="LMD" style="strokeWidth=2;html=1;shape=mxgraph.flowchart.database;whiteSpace=wrap;" vertex="1" parent="1">
          <mxGeometry x="350" y="-775" width="60" height="60" as="geometry" />
        </mxCell>
        <mxCell id="eA9EFltyGCuq8FdXo3xL-6" value="IADS Parser Create LMD" style="verticalLabelPosition=middle;verticalAlign=middle;html=1;shape=process;whiteSpace=wrap;rounded=1;size=0.14;arcSize=6;labelPosition=center;align=center;" vertex="1" parent="1">
          <mxGeometry x="130" y="-775" width="100" height="60" as="geometry" />
        </mxCell>
        <mxCell id="eA9EFltyGCuq8FdXo3xL-7" value="&lt;br&gt;&lt;br&gt;S&amp;amp;T&lt;br&gt;Developer" style="shape=actor;whiteSpace=wrap;html=1;labelPosition=center;verticalLabelPosition=middle;align=center;verticalAlign=middle;" vertex="1" parent="1">
          <mxGeometry x="331" y="-955" width="70" height="80" as="geometry" />
        </mxCell>
        <mxCell id="eA9EFltyGCuq8FdXo3xL-8" value="" style="endArrow=none;html=1;rounded=0;entryX=0;entryY=0;entryDx=0;entryDy=0;exitX=1;exitY=0.75;exitDx=0;exitDy=0;endFill=0;" edge="1" parent="1" source="eA9EFltyGCuq8FdXo3xL-7" target="eA9EFltyGCuq8FdXo3xL-16">
          <mxGeometry width="50" height="50" relative="1" as="geometry">
            <mxPoint x="495" y="-790" as="sourcePoint" />
            <mxPoint x="545" y="-840" as="targetPoint" />
          </mxGeometry>
        </mxCell>
        <mxCell id="eA9EFltyGCuq8FdXo3xL-9" value="" style="endArrow=none;html=1;rounded=0;entryX=1;entryY=0;entryDx=0;entryDy=0;exitX=0;exitY=0.75;exitDx=0;exitDy=0;endFill=0;" edge="1" parent="1" source="eA9EFltyGCuq8FdXo3xL-7" target="eA9EFltyGCuq8FdXo3xL-6">
          <mxGeometry width="50" height="50" relative="1" as="geometry">
            <mxPoint x="410" y="-865" as="sourcePoint" />
            <mxPoint x="460" y="-915" as="targetPoint" />
          </mxGeometry>
        </mxCell>
        <mxCell id="eA9EFltyGCuq8FdXo3xL-10" style="edgeStyle=orthogonalEdgeStyle;rounded=0;orthogonalLoop=1;jettySize=auto;html=1;exitX=0.5;exitY=1;exitDx=0;exitDy=0;entryX=0.5;entryY=0;entryDx=0;entryDy=0;" edge="1" parent="1" source="eA9EFltyGCuq8FdXo3xL-11" target="eA9EFltyGCuq8FdXo3xL-19">
          <mxGeometry relative="1" as="geometry" />
        </mxCell>
        <mxCell id="eA9EFltyGCuq8FdXo3xL-11" value="Commit Core SQL &lt;br&gt;Commands&amp;nbsp;" style="verticalLabelPosition=middle;verticalAlign=middle;html=1;shape=trapezoid;perimeter=trapezoidPerimeter;whiteSpace=wrap;size=0.23;arcSize=10;flipV=1;labelPosition=center;align=center;" vertex="1" parent="1">
          <mxGeometry x="219.5" y="-660" width="100" height="60" as="geometry" />
        </mxCell>
        <mxCell id="eA9EFltyGCuq8FdXo3xL-12" value="Core SQL" style="strokeWidth=2;html=1;shape=mxgraph.flowchart.multi-document;whiteSpace=wrap;" vertex="1" parent="1">
          <mxGeometry x="556" y="-660" width="88" height="60" as="geometry" />
        </mxCell>
        <mxCell id="eA9EFltyGCuq8FdXo3xL-13" style="edgeStyle=orthogonalEdgeStyle;rounded=0;orthogonalLoop=1;jettySize=auto;html=1;exitX=0.5;exitY=1;exitDx=0;exitDy=0;" edge="1" parent="1" source="eA9EFltyGCuq8FdXo3xL-14" target="eA9EFltyGCuq8FdXo3xL-16">
          <mxGeometry relative="1" as="geometry" />
        </mxCell>
        <mxCell id="eA9EFltyGCuq8FdXo3xL-14" value="WPs&lt;br&gt;to Import" style="html=1;strokeWidth=2;shape=manualInput;whiteSpace=wrap;rounded=1;size=26;arcSize=11;" vertex="1" parent="1">
          <mxGeometry x="550" y="-920" width="100" height="60" as="geometry" />
        </mxCell>
        <mxCell id="eA9EFltyGCuq8FdXo3xL-15" value="" style="edgeStyle=orthogonalEdgeStyle;rounded=0;orthogonalLoop=1;jettySize=auto;html=1;exitX=0.5;exitY=1;exitDx=0;exitDy=0;" edge="1" parent="1" source="eA9EFltyGCuq8FdXo3xL-16" target="eA9EFltyGCuq8FdXo3xL-12">
          <mxGeometry relative="1" as="geometry">
            <mxPoint x="506" y="-660" as="sourcePoint" />
          </mxGeometry>
        </mxCell>
        <mxCell id="eA9EFltyGCuq8FdXo3xL-16" value="IADS Parser Create Core SQL" style="verticalLabelPosition=middle;verticalAlign=middle;html=1;shape=process;whiteSpace=wrap;rounded=1;size=0.14;arcSize=6;labelPosition=center;align=center;" vertex="1" parent="1">
          <mxGeometry x="550" y="-790" width="100" height="60" as="geometry" />
        </mxCell>
        <mxCell id="eA9EFltyGCuq8FdXo3xL-17" value="&lt;br&gt;&lt;br&gt;PO" style="shape=actor;whiteSpace=wrap;html=1;labelPosition=center;verticalLabelPosition=middle;align=center;verticalAlign=middle;" vertex="1" parent="1">
          <mxGeometry x="565" y="-1050" width="70" height="80" as="geometry" />
        </mxCell>
        <mxCell id="eA9EFltyGCuq8FdXo3xL-18" style="edgeStyle=orthogonalEdgeStyle;rounded=0;orthogonalLoop=1;jettySize=auto;html=1;exitX=0.5;exitY=1;exitDx=0;exitDy=0;entryX=0.5;entryY=0.167;entryDx=0;entryDy=0;entryPerimeter=0;endArrow=none;endFill=0;" edge="1" parent="1" source="eA9EFltyGCuq8FdXo3xL-17" target="eA9EFltyGCuq8FdXo3xL-14">
          <mxGeometry relative="1" as="geometry" />
        </mxCell>
        <mxCell id="eA9EFltyGCuq8FdXo3xL-19" value="GitLab" style="rounded=0;whiteSpace=wrap;html=1;" vertex="1" parent="1">
          <mxGeometry x="210" y="-550" width="120" height="60" as="geometry" />
        </mxCell>
        <mxCell id="eA9EFltyGCuq8FdXo3xL-20" value="" style="edgeStyle=orthogonalEdgeStyle;rounded=0;orthogonalLoop=1;jettySize=auto;html=1;exitX=0;exitY=0.5;exitDx=0;exitDy=0;exitPerimeter=0;entryX=1;entryY=0.5;entryDx=0;entryDy=0;" edge="1" parent="1" source="eA9EFltyGCuq8FdXo3xL-12" target="eA9EFltyGCuq8FdXo3xL-11">
          <mxGeometry relative="1" as="geometry">
            <mxPoint x="556" y="-660" as="sourcePoint" />
            <mxPoint x="507.5" y="-660" as="targetPoint" />
            <Array as="points" />
          </mxGeometry>
        </mxCell>
        <mxCell id="eA9EFltyGCuq8FdXo3xL-21" value="" style="endArrow=none;html=1;rounded=0;entryX=0.25;entryY=1;entryDx=0;entryDy=0;exitX=0.5;exitY=0;exitDx=0;exitDy=0;" edge="1" parent="1" source="eA9EFltyGCuq8FdXo3xL-11" target="eA9EFltyGCuq8FdXo3xL-7">
          <mxGeometry width="50" height="50" relative="1" as="geometry">
            <mxPoint x="440" y="-650" as="sourcePoint" />
            <mxPoint x="490" y="-700" as="targetPoint" />
          </mxGeometry>
        </mxCell>
      </root>
    </mxGraphModel>
  </diagram>
</mxfile>
